<svg aria-hidden="false" aria-label="Interactive chart" viewBox="0 0 650 400" height="400" width="650" xmlns="http://www.w3.org/2000/svg" style="font-family: Roboto; font-size: 12px;" class="highcharts-root" version="1.1" xmlns:xlink="http://www.w3.org/1999/xlink"><desc aria-hidden="true">Created with Highcharts 10.3.1</desc><defs aria-hidden="true"><clipPath id="highcharts-w0s3hup-392-"><rect fill="none" height="339" width="630" y="0" x="0"></rect></clipPath></defs><rect aria-hidden="true" ry="0" rx="0" height="400" width="650" y="0" x="0" class="highcharts-background" fill="#ffffff"></rect><rect aria-hidden="true" height="339" width="630" y="46" x="10" class="highcharts-plot-background" fill="none"></rect><g aria-hidden="true" data-z-index="0" class="highcharts-pane-group"></g><rect aria-hidden="true" height="339" width="630" y="46" x="10" data-z-index="1" class="highcharts-plot-border" fill="none"></rect><g aria-hidden="false" data-z-index="3" class="highcharts-series-group"><g aria-hidden="false" clip-path="none" transform="translate(10,46) scale(1 1)" opacity="1" data-z-index="0.1" class="highcharts-series highcharts-series-0 highcharts-pie-series"><path style="outline: none;" aria-label="People &amp; Processes, 70." role="img" tabindex="-1" class="highcharts-point highcharts-point-select highcharts-color-0" stroke-linejoin="round" opacity="1" stroke-width="1" stroke="#ffffff" transform="translate(8,6)" d="M 314.97664886719633 54.85000237800003 A 114.65 114.65 0 1 1 206.0122656275007 205.08505664389958 L 315 169.5 A 0 0 0 1 0 315 169.5 Z" fill="#4f76f6"></path><path style="outline: none;" aria-label="Data &amp; Tech, 20." role="img" tabindex="-1" class="highcharts-point highcharts-color-1" stroke-linejoin="round" opacity="1" stroke-width="1" stroke="#ffffff" transform="translate(0,0)" d="M 205.9767350706503 204.97605113516488 A 114.65 114.65 0 0 1 247.51117118063067 76.81839187524925 L 315 169.5 A 0 0 0 0 0 315 169.5 Z" fill="#77f2a1"></path><path style="outline: none;" aria-label="Algorithms, 10." role="img" tabindex="-1" class="highcharts-point highcharts-color-2" stroke-linejoin="round" opacity="1" stroke-width="1" stroke="#ffffff" transform="translate(0,0)" d="M 247.60388651772013 76.7509493984782 A 114.65 114.65 0 0 1 314.84075345010007 54.850110595184844 L 315 169.5 A 0 0 0 0 0 315 169.5 Z" fill="#21808d"></path></g><g aria-hidden="true" clip-path="none" transform="translate(10,46) scale(1 1)" opacity="1" data-z-index="0.1" class="highcharts-markers highcharts-series-0 highcharts-pie-series"></g></g><text aria-hidden="true" y="24" style="color: rgb(51, 51, 51); font-size: 18px; fill: rgb(51, 51, 51);" data-z-index="4" class="highcharts-title" text-anchor="middle" x="325">The 10-20-70 Principle for AI Success</text><text aria-hidden="true" y="45" style="color: rgb(102, 102, 102); fill: rgb(102, 102, 102);" data-z-index="4" class="highcharts-subtitle" text-anchor="middle" x="325"></text><text aria-hidden="true" y="397" style="color: rgb(102, 102, 102); fill: rgb(102, 102, 102);" data-z-index="4" class="highcharts-caption" text-anchor="start" x="10"></text><g aria-hidden="true" transform="translate(10,46) scale(1 1)" opacity="1" data-z-index="6" class="highcharts-data-labels highcharts-series-0 highcharts-pie-series"><path d="M 437.02430823633614 254.52313674410624 C 432.02430823633614 254.52313674410624 417.46200233758714 243.9430022028417 412.60790037133745 240.41629068908688 L 407.75379840508776 236.88957917533205" stroke-width="1" stroke="#4f76f6" class="highcharts-data-label-connector highcharts-color-0" fill="none"></path><path d="M 172.429674917906 124.80069176366393 C 177.429674917906 124.80069176366393 194.5486922112188 130.36299766241297 200.25503130898971 132.21709962866265 L 205.96137040676064 134.07120159491234" stroke-width="1" stroke="#77f2a1" class="highcharts-data-label-connector highcharts-color-1" fill="none"></path><path d="M 265.3006917636637 31.929674917906084 C 270.3006917636637 31.929674917906084 275.8629976624128 49.048692211218835 277.7170996286625 54.75503130898976 L 279.57120159491217 60.46137040676068" stroke-width="1" stroke="#21808d" class="highcharts-data-label-connector highcharts-color-2" fill="none"></path><g style="cursor: pointer;" transform="translate(442,245)" data-z-index="1" class="highcharts-label highcharts-data-label highcharts-data-label-color-0"><text style="color: rgb(0, 0, 0); font-size: 11px; font-weight: bold; fill: rgb(0, 0, 0);" y="16" data-z-index="1" x="5"><tspan style="font-weight: bold;">People &amp; Processes</tspan>: 70.0 %</text></g><g style="cursor: pointer;" transform="translate(61,115)" data-z-index="1" class="highcharts-label highcharts-data-label highcharts-data-label-color-1"><text style="color: rgb(0, 0, 0); font-size: 11px; font-weight: bold; fill: rgb(0, 0, 0);" y="16" data-z-index="1" x="5"><tspan style="font-weight: bold;">Data &amp; Tech</tspan>: 20.0 %</text></g><g style="cursor: pointer;" transform="translate(159,22)" data-z-index="1" class="highcharts-label highcharts-data-label highcharts-data-label-color-2"><text style="color: rgb(0, 0, 0); font-size: 11px; font-weight: bold; fill: rgb(0, 0, 0);" y="16" data-z-index="1" x="5"><tspan style="font-weight: bold;">Algorithms</tspan>: 10.0 %</text></g></g><g aria-hidden="true" visibility="hidden" data-z-index="7" class="highcharts-legend highcharts-no-tooltip"><rect height="8" width="8" y="0" x="0" ry="0" rx="0" class="highcharts-legend-box" fill="none"></rect><g data-z-index="1"><g></g></g></g><text aria-hidden="false" aria-label="Chart credits: Highcharts.com" style="cursor: pointer; color: rgb(153, 153, 153); font-size: 9px; fill: rgb(153, 153, 153);" y="395" data-z-index="8" text-anchor="end" class="highcharts-credits" x="640">Highcharts.com</text></svg>