<svg viewBox="0 0 80 80" width="80" height="80" xmlns="http://www.w3.org/2000/svg" role="img" aria-label="AI Strategy &amp; Consulting">
  <defs>
    <linearGradient id="gradStroke" x1="0" y1="0" x2="1" y2="1">
      <stop offset="0%" stop-color="#4F76F6"/>
      <stop offset="100%" stop-color="#7AA5FF"/>
    </linearGradient>
    <linearGradient id="gradFill" x1="0" y1="0" x2="0" y2="1">
      <stop offset="0%" stop-color="#EEF4FF"/>
      <stop offset="100%" stop-color="#DFE8FF"/>
    </linearGradient>
    <marker id="arrowhead" markerWidth="6" markerHeight="6" refX="5" refY="3" orient="auto">
      <path d="M0,0 L6,3 L0,6 Z" fill="#4F76F6" />
    </marker>
  </defs>
  <!-- outer rings -->
  <circle cx="40" cy="40" r="32" fill="none" stroke="url(#gradStroke)" stroke-width="2.5"/>
  <circle cx="40" cy="40" r="26" fill="none" stroke="#AFC4FF" stroke-width="1.6" stroke-dasharray="4 2"/>
  <!-- consulting blueprint -->
  <polygon points="40,24 56,32 56,48 40,56 24,48 24,32" fill="url(#gradFill)" stroke="#7AA5FF" stroke-width="1.6"/>
  <path d="M40,24 L56,32 L56,48 L40,56 L24,48 L24,32 Z" fill="none" stroke="#7AA5FF" stroke-width="1.2"/>
  <!-- connection nodes -->
  <g fill="#4F76F6">
    <circle cx="40" cy="24" r="2.1"/>
    <circle cx="56" cy="32" r="2.1"/>
    <circle cx="56" cy="48" r="2.1"/>
    <circle cx="40" cy="56" r="2.1"/>
    <circle cx="24" cy="48" r="2.1"/>
    <circle cx="24" cy="32" r="2.1"/>
  </g>
  <!-- growth arrow -->
  <line x1="32" y1="48" x2="52" y2="28" stroke="#4F76F6" stroke-width="2.4" marker-end="url(#arrowhead)"/>
  <circle cx="32" cy="48" r="3" fill="#4F76F6"/>
  <!-- whiteboard -->
  <rect x="16" y="22" width="18" height="14" rx="2" ry="2" fill="#FFFFFF" stroke="#7AA5FF" stroke-width="1.1"/>
  <line x1="18" y1="26" x2="32" y2="26" stroke="#4F76F6" stroke-width="1"/>
  <line x1="18" y1="29" x2="32" y2="29" stroke="#AFC4FF" stroke-width="1"/>
  <line x1="18" y1="32" x2="28" y2="32" stroke="#AFC4FF" stroke-width="1"/>
</svg>