<svg viewBox="0 0 80 80" xmlns="http://www.w3.org/2000/svg" role="img" aria-label="Smart Chatbots">
  <defs>
    <linearGradient id="sStroke" x1="0" y1="0" x2="1" y2="1">
      <stop offset="0%" stop-color="#4F76F6"/>
      <stop offset="100%" stop-color="#7AA5FF"/>
    </linearGradient>
    <linearGradient id="botFill" x1="0" y1="0" x2="0" y2="1">
      <stop offset="0%" stop-color="#EEF4FF"/>
      <stop offset="100%" stop-color="#DFE8FF"/>
    </linearGradient>
  </defs>
  <circle cx="40" cy="40" r="32" fill="none" stroke="url(#sStroke)" stroke-width="2.5"/>
  <circle cx="40" cy="40" r="26" fill="none" stroke="#AFC4FF" stroke-width="1.6" stroke-dasharray="4 2"/>
  <!-- robot head -->
  <rect x="26" y="28" width="28" height="20" rx="6" fill="url(#botFill)" stroke="#7AA5FF" stroke-width="1.6"/>
  <circle cx="34" cy="38" r="3" fill="#4F76F6"/>
  <circle cx="46" cy="38" r="3" fill="#4F76F6"/>
  <rect x="36" y="44" width="8" height="2" rx="1" fill="#4F76F6"/>
  <circle cx="40" cy="26" r="3" fill="#4F76F6"/>
  <line x1="40" y1="26" x2="40" y2="28" stroke="#4F76F6" stroke-width="2"/>
  <!-- chat bubble -->
  <path d="M18 24 h20 a8 8 0 0 1 8 8 v4 a8 8 0 0 1 -8 8 h-10 l-6 6 v-6 h-4 a8 8 0 0 1 -8 -8 v-4 a8 8 0 0 1 8 -8 z" fill="#FFFFFF" stroke="#7AA5FF" stroke-width="1.4"/>
  <circle cx="24" cy="34" r="1.6" fill="#4F76F6"/>
  <circle cx="30" cy="34" r="1.6" fill="#4F76F6"/>
  <circle cx="36" cy="34" r="1.6" fill="#4F76F6"/>
</svg>